<svg xmlns="http://www.w3.org/2000/svg" width="955" height="955" preserveAspectRatio="xMidYMid meet" version="1.0" viewBox="0 0 9550 9550"><g id="layer101" fill="#000" stroke="none"><path d="M4435 9544 c-105 -9 -325 -36 -440 -55 -505 -84 -912 -218 -1370 -448 -930 -468 -1660 -1201 -2127 -2136 -253 -506 -401 -1009 -475 -1615 -26 -208 -26 -822 0 -1030 84 -693 274 -1278 601 -1855 583 -1027 1547 -1810 2681 -2178 280 -91 618 -164 945 -204 208 -25 842 -25 1050 0 1122 137 2098 610 2873 1391 754 759 1230 1759 1352 2836 21 190 21 861 0 1050 -155 1362 -864 2571 -1975 3367 -218 156 -437 284 -705 413 -491 237 -923 364 -1510 442 -120 15 -221 20 -500 23 -192 1 -372 1 -400 -1z m1245 -1864 c0 -11 -7 -20 -15 -20 -8 0 -15 9 -15 20 0 11 7 20 15 20 8 0 15 -9 15 -20z m-3249 -100 c10 -14 24 -47 31 -73 11 -44 10 -58 -15 -155 -16 -65 -27 -134 -27 -176 l0 -68 60 -59 c73 -72 170 -138 320 -218 140 -75 160 -92 103 -84 l-40 5 -13 -51 c-33 -139 -235 -345 -306 -313 -12 6 -47 44 -77 84 -98 132 -243 253 -352 293 -27 10 -62 26 -76 36 -15 10 -48 28 -75 39 -43 19 -73 44 -74 62 0 3 15 11 34 18 51 16 101 71 139 152 19 40 62 130 95 199 70 148 116 223 179 290 50 54 66 57 94 19z m-1174 -710 c13 -18 33 -64 45 -104 21 -67 28 -77 133 -182 112 -114 229 -199 370 -272 59 -31 83 -37 156 -42 78 -5 97 -11 194 -58 143 -70 245 -141 295 -209 42 -55 64 -80 184 -208 40 -42 96 -121 142 -200 42 -71 89 -151 104 -176 30 -51 149 -199 160 -199 3 0 16 10 27 23 16 17 22 41 26 112 4 50 9 118 13 153 6 53 3 70 -14 105 -14 30 -22 72 -27 150 l-7 109 -48 50 c-69 74 -83 88 -212 208 -99 92 -125 112 -171 125 -30 8 -62 22 -73 30 -17 13 -15 14 29 15 55 0 152 30 214 67 95 56 193 200 214 318 6 33 12 61 14 63 12 13 297 -179 430 -290 133 -111 183 -177 239 -312 l46 -111 11 -230 c24 -477 14 -664 -42 -802 l-21 -51 32 -159 c17 -87 40 -187 50 -223 35 -117 158 -350 185 -350 7 0 19 16 25 37 20 58 256 312 390 418 41 33 96 81 122 108 l47 49 153 3 c153 3 218 14 285 48 24 13 35 29 49 69 15 47 18 50 30 33 8 -10 14 -27 14 -37 0 -26 19 -22 32 7 14 32 22 31 37 -1 10 -23 16 -25 43 -20 l31 6 -8 -42 c-14 -77 -12 -83 18 -86 15 -2 27 -7 27 -12 0 -15 -100 -72 -160 -91 -33 -10 -99 -23 -147 -29 -47 -6 -95 -15 -105 -21 -10 -6 -30 -35 -43 -65 -17 -38 -34 -60 -56 -72 -18 -9 -38 -24 -46 -32 -7 -8 -52 -58 -99 -110 -47 -52 -94 -111 -104 -131 -11 -20 -35 -54 -55 -74 -19 -21 -35 -43 -35 -49 0 -7 -13 -33 -29 -58 -32 -50 -45 -127 -61 -338 -8 -116 -21 -155 -77 -219 -94 -111 -247 -109 -325 4 -44 64 -59 142 -56 285 l2 125 -118 285 c-204 491 -199 482 -324 544 -75 38 -109 33 -136 -19 -30 -58 -29 -216 3 -340 28 -110 102 -339 143 -447 33 -88 33 -88 109 -55 42 19 71 9 50 -17 -8 -9 -31 -26 -52 -38 -28 -15 -39 -28 -39 -45 0 -25 93 -209 143 -282 50 -73 116 -147 162 -180 43 -31 74 -88 60 -111 -24 -38 -154 26 -256 127 l-76 74 -189 -63 -189 -63 -3 -35 c-3 -40 14 -64 72 -99 20 -13 36 -27 36 -32 0 -15 -138 -11 -168 5 -15 8 -45 33 -66 55 -26 26 -58 46 -90 57 -28 9 -121 52 -206 95 -273 139 -441 187 -484 140 -25 -27 -41 -26 -80 4 -54 44 -66 58 -91 111 -26 56 -31 99 -14 124 8 13 12 12 26 -7 8 -13 22 -23 30 -23 30 0 92 41 113 75 46 75 70 82 316 94 l139 6 -1 25 c-1 14 -23 97 -49 185 -44 147 -48 169 -49 271 -1 107 0 112 28 148 25 34 28 44 23 91 -3 29 -15 70 -27 91 -45 83 -76 133 -141 234 -39 60 -72 124 -78 150 -8 39 -22 55 -93 120 -171 153 -196 187 -218 302 -13 67 -55 111 -116 123 -30 5 -58 25 -121 86 -45 43 -89 79 -98 79 -8 0 -15 5 -15 10 0 6 10 10 23 10 13 0 46 11 74 25 156 78 268 261 232 376 -12 39 -18 44 -46 47 l-33 3 0 -56 c0 -70 -23 -117 -89 -183 -55 -55 -147 -105 -182 -100 -15 2 -50 37 -103 103 -43 55 -157 178 -253 273 -154 152 -172 172 -147 172 36 0 107 42 133 79 14 20 21 45 21 78 0 47 -2 51 -45 81 -56 40 -79 77 -95 154 -6 33 -14 67 -18 77 -6 15 -4 15 18 0 14 -9 35 -31 47 -49z m2420 -295 c7 -20 -2 -29 -21 -22 -9 4 -13 13 -10 22 8 19 23 19 31 0z m3861 -183 c3 -16 -2 -22 -16 -22 -21 0 -36 25 -26 41 10 17 39 5 42 -19z m219 -1195 c55 -28 102 -77 133 -137 15 -29 20 -59 20 -113 0 -132 -43 -209 -148 -265 -52 -28 -70 -32 -134 -32 -89 0 -157 29 -213 92 -59 65 -78 117 -73 207 4 87 23 132 76 186 94 94 227 118 339 62z m-1849 -1394 c5 -17 -26 -29 -40 -15 -6 6 -7 15 -3 22 9 14 37 9 43 -7z m1233 -206 c454 -117 805 -481 902 -937 28 -131 28 -339 0 -470 -97 -452 -415 -788 -868 -917 -122 -34 -393 -44 -528 -19 -253 48 -503 192 -657 381 -280 342 -371 717 -270 1111 24 92 101 258 167 357 63 95 189 226 288 300 145 108 359 194 535 216 126 16 321 6 431 -22z m-6091 -91 c0 -8 -5 -18 -11 -22 -14 -8 -33 11 -25 25 10 16 36 13 36 -3z m3196 -167 c54 -33 123 -116 159 -191 31 -65 35 -81 35 -156 0 -75 -4 -93 -35 -162 -21 -46 -35 -93 -35 -117 0 -31 -7 -45 -32 -70 -76 -70 -221 -149 -292 -157 -129 -16 -129 -16 -112 3 9 10 16 27 16 39 0 21 -4 22 -92 22 -51 0 -110 5 -131 11 -43 12 -101 59 -122 100 -13 25 -13 32 6 75 33 74 15 153 -35 154 -11 1 24 22 79 49 55 26 126 64 158 84 51 33 57 35 57 17 0 -29 18 -25 106 20 82 42 127 49 159 26 17 -12 18 -17 7 -40 -6 -14 -23 -31 -37 -38 -23 -10 -25 -17 -25 -70 0 -70 18 -102 65 -118 28 -9 41 -8 68 5 43 20 59 50 55 101 -2 33 -9 43 -40 63 -33 21 -38 29 -38 62 0 26 -8 47 -26 68 -23 27 -32 31 -77 31 -30 0 -71 -9 -95 -20 l-44 -20 74 73 c40 39 91 98 112 130 43 62 49 64 112 26z m-31 -429 c0 -13 -8 -28 -17 -34 -40 -25 -80 43 -42 71 24 17 59 -5 59 -37z m-1799 9 c10 -17 -23 -46 -37 -32 -7 7 -9 19 -6 27 7 18 33 21 43 5z m1133 -71 c-1 -41 -1 -42 -11 -15 -5 15 -7 34 -4 42 10 27 16 16 15 -27z m-29 -648 c0 -11 -7 -20 -15 -20 -8 0 -15 9 -15 20 0 11 7 20 15 20 8 0 15 -9 15 -20z m1162 -850 c79 -22 138 -102 138 -185 0 -72 -41 -130 -119 -170 -101 -51 -239 36 -249 158 -7 90 49 170 138 195 47 13 49 14 92 2z"/><path d="M2905 4652 l-199 -67 -28 -85 c-49 -152 -36 -283 43 -460 39 -85 54 -100 100 -100 49 0 308 84 343 111 36 28 34 65 -9 219 -48 168 -54 256 -26 348 27 89 27 102 -1 102 -13 0 -113 -31 -223 -68z"/><path d="M3078 3871 c-89 -29 -140 -94 -146 -188 -4 -54 -1 -69 23 -108 14 -25 45 -60 68 -76 40 -29 46 -31 119 -27 85 3 108 15 162 82 29 35 31 44 31 116 0 71 -3 82 -30 122 -17 23 -48 52 -69 62 -44 22 -118 30 -158 17z"/></g></svg>